<svg width="495" height="304" viewBox="0 0 495 304" fill="none" xmlns="http://www.w3.org/2000/svg">
<path d="M234.919 219.583L217.129 215.858C215.259 215.466 214.806 212.946 216.415 211.866L223.527 207.082C224.836 206.191 226.312 205.573 227.867 205.265C229.422 204.957 231.023 204.966 232.574 205.291C234.126 205.615 235.596 206.25 236.896 207.156C238.197 208.061 239.301 209.22 240.142 210.562L241.608 212.87L241.644 212.82L241.768 212.912C245.912 206.457 246.77 203.301 248.433 195.307L248.637 194.303C249.963 187.821 251.564 179.985 259.002 180.461C268.764 181.083 272.187 199.234 270.214 214.304C272.48 213.967 274.795 214.297 276.876 215.254C278.957 216.212 280.714 217.755 281.93 219.694L286.528 226.93C287.569 228.571 286.145 230.692 284.274 230.3L274.626 228.28C274.686 229.288 274.613 230.329 274.395 231.371L270.083 251.961C269.387 255.285 265.482 255.901 263.816 252.832C263.188 251.678 260.882 247.476 257.885 242.027C244.072 255.009 215.597 257.698 210.681 243.548C210.62 243.539 210.559 243.528 210.499 243.516L207.794 242.95C206.859 242.727 206.049 242.149 205.534 241.339C205.02 240.529 204.842 239.55 205.038 238.611C205.235 237.673 205.79 236.848 206.587 236.312C207.383 235.776 208.358 235.572 209.303 235.743L210.195 235.93C211.532 229.807 217.069 225.425 223.439 224.348C227.579 223.649 231.504 222.018 234.919 219.58L234.919 219.583ZM264.009 217.535C264.106 217.072 264.201 216.602 264.288 216.119C265.149 211.236 265.382 206.263 264.982 201.32C264.574 196.368 263.529 192.176 262.076 189.356C260.605 186.5 259.32 186.063 258.651 186.02C257.815 185.967 257.514 186.152 257.381 186.244C257.158 186.396 256.756 186.779 256.277 187.72C255.291 189.665 254.752 192.282 254.077 195.556L253.892 196.439C253.037 200.566 252.315 203.81 251.143 206.943C250.242 209.35 249.122 211.586 247.601 214.096L264.009 217.533L264.009 217.535ZM249.059 225.999C240.691 236.263 227.339 239.324 215.796 237.519C215.524 237.475 215.246 237.485 214.978 237.548C214.71 237.612 214.457 237.728 214.234 237.89C214.011 238.051 213.822 238.255 213.678 238.49C213.534 238.725 213.438 238.986 213.396 239.258C213.353 239.53 213.365 239.808 213.43 240.075C213.495 240.343 213.613 240.595 213.776 240.817C213.939 241.039 214.145 241.226 214.381 241.369C214.617 241.511 214.879 241.606 215.151 241.647C227.27 243.545 241.679 240.565 251.219 229.915L249.059 225.999Z" fill="white"/>
<path d="M141.344 184.838L135.952 188.454C129.858 186.276 113.48 181.381 103.358 187.225C103.358 187.225 102.206 204.419 119.897 216.262C119.584 221.077 119.19 223.706 121.289 228.023L113.85 233.937L117.105 237.53L123.9 232.155L126.207 234.788L121.858 242.548L125.992 245.131L129.956 237.872C140.706 245.291 155.977 243.398 170.359 235.095C184.741 226.791 194.016 214.512 192.967 201.493L201.234 201.69L201.064 196.818L192.17 196.704L191.044 193.39L199.095 190.193L197.611 185.577L188.77 189.062C186.081 185.087 183.607 184.114 179.281 181.977C177.87 160.734 162.404 153.135 162.404 153.135C152.282 158.979 148.331 175.61 147.171 181.976L141.344 184.838ZM135.945 204.707C137.063 204.062 138.391 203.883 139.635 204.212C140.88 204.541 141.939 205.35 142.58 206.46C143.222 207.571 143.392 208.893 143.055 210.135C142.717 211.377 141.899 212.438 140.781 213.083C139.662 213.729 138.335 213.907 137.09 213.579C135.846 213.25 134.786 212.441 134.145 211.33C133.504 210.22 133.333 208.898 133.671 207.656C134.008 206.414 134.826 205.353 135.945 204.707ZM161.25 190.097C162.369 189.451 163.696 189.273 164.941 189.602C166.185 189.931 167.245 190.739 167.886 191.85C168.527 192.961 168.698 194.283 168.36 195.525C168.023 196.767 167.205 197.827 166.086 198.473C164.968 199.119 163.64 199.297 162.396 198.968C161.151 198.64 160.092 197.831 159.451 196.72C158.809 195.61 158.639 194.288 158.976 193.046C159.314 191.804 160.132 190.743 161.25 190.097ZM151.634 212.401L160.069 207.531L160.478 215.057C162.869 217.251 166.367 217.855 169.277 216.175C170.955 215.207 172.182 213.616 172.688 211.753C173.195 209.889 172.939 207.907 171.977 206.241L174.085 205.023C175.368 207.245 175.709 209.888 175.034 212.372C174.359 214.857 172.723 216.978 170.486 218.269C167.323 220.096 163.59 219.961 160.687 218.343C160.638 221.666 158.888 224.966 155.725 226.792C153.488 228.084 150.833 228.44 148.344 227.782C145.855 227.125 143.736 225.507 142.454 223.286L144.562 222.068C145.524 223.734 147.113 224.948 148.98 225.441C150.847 225.934 152.838 225.667 154.516 224.698C157.426 223.018 158.651 219.686 157.947 216.518L151.634 212.401Z" fill="white"/>
<path d="M352.896 184.838L358.288 188.454C364.382 186.276 380.76 181.381 390.883 187.225C390.883 187.225 392.034 204.419 374.343 216.262C374.656 221.077 375.05 223.706 372.951 228.023L380.39 233.937L377.135 237.53L370.341 232.155L368.033 234.788L372.382 242.548L368.248 245.131L364.284 237.872C353.534 245.291 338.263 243.398 323.881 235.095C309.499 226.791 300.224 214.512 301.273 201.493L293.006 201.69L293.176 196.818L302.07 196.704L303.197 193.39L295.145 190.193L296.629 185.577L305.47 189.062C308.159 185.087 310.633 184.114 314.959 181.977C316.37 160.734 331.836 153.135 331.836 153.135C341.959 158.979 345.909 175.61 347.069 181.976L352.896 184.838ZM358.295 204.707C357.177 204.062 355.849 203.883 354.605 204.212C353.36 204.541 352.301 205.35 351.66 206.46C351.018 207.571 350.848 208.893 351.185 210.135C351.523 211.377 352.341 212.438 353.459 213.083C354.578 213.729 355.905 213.907 357.15 213.579C358.394 213.25 359.454 212.441 360.095 211.33C360.736 210.22 360.907 208.898 360.569 207.656C360.232 206.414 359.414 205.353 358.295 204.707ZM332.99 190.097C331.871 189.451 330.544 189.273 329.299 189.602C328.055 189.931 326.995 190.739 326.354 191.85C325.713 192.961 325.542 194.283 325.88 195.525C326.217 196.767 327.035 197.827 328.154 198.473C329.272 199.119 330.6 199.297 331.844 198.968C333.089 198.64 334.148 197.831 334.789 196.72C335.431 195.61 335.601 194.288 335.264 193.046C334.926 191.804 334.108 190.743 332.99 190.097ZM342.606 212.401L334.171 207.531L333.762 215.057C331.371 217.251 327.873 217.855 324.963 216.175C323.285 215.207 322.058 213.616 321.552 211.753C321.046 209.889 321.302 207.907 322.263 206.241L320.155 205.023C318.872 207.245 318.531 209.888 319.206 212.372C319.881 214.857 321.517 216.978 323.754 218.269C326.917 220.096 330.65 219.961 333.553 218.343C333.602 221.666 335.352 224.966 338.515 226.792C340.753 228.084 343.408 228.44 345.896 227.782C348.385 227.125 350.504 225.507 351.787 223.286L349.678 222.068C348.716 223.734 347.127 224.948 345.26 225.441C343.394 225.934 341.402 225.667 339.724 224.698C336.814 223.018 335.589 219.686 336.293 216.518L342.606 212.401Z" fill="white"/>
<path d="M50 42.5568C50 41.1447 51.1528 40 52.575 40H78.325C79.7472 40 80.9 41.1447 80.9 42.5568V73.2386C80.9 74.6507 82.0528 75.7955 83.475 75.7955H119.525C120.947 75.7955 122.1 74.6507 122.1 73.2386V42.5568C122.1 41.1447 123.253 40 124.675 40H150.425C151.847 40 153 41.1447 153 42.5568V139.716C153 141.128 151.847 142.273 150.425 142.273H124.675C123.253 142.273 122.1 141.128 122.1 139.716V109.034C122.1 107.622 120.947 106.477 119.525 106.477H83.475C82.0528 106.477 80.9 107.622 80.9 109.034V261.443C80.9 262.855 79.7472 264 78.325 264H52.575C51.1528 264 50 262.855 50 261.443V42.5568Z" fill="white"/>
<path d="M273.542 40C272.138 40 271 41.1417 271 42.55V139.45C271 140.858 272.138 142 273.542 142H299.958C301.362 142 302.5 140.858 302.5 139.45V103.75C302.5 102.342 303.64 101.211 305.039 101.094C312.198 100.494 318.948 97.3726 324.067 92.2375C329.787 86.4989 333 78.7156 333 70.6C333 62.4844 329.787 54.7012 324.067 48.9625C318.347 43.2239 310.589 40 302.5 40H273.542Z" fill="white"/>
<path d="M231.556 138.468C231.962 139.4 232.867 140 233.866 140H258.469C260.348 140 261.57 137.982 260.73 136.267L214.261 41.426C213.329 39.5247 210.671 39.5247 209.739 41.426L163.27 136.267C162.43 137.982 163.652 140 165.531 140H190.134C191.133 140 192.038 139.4 192.444 138.468L209.69 98.8692C210.58 96.8265 213.42 96.8265 214.31 98.8692L231.556 138.468Z" fill="white"/>
<path d="M343 42.55C343 41.1417 344.157 40 345.583 40H374C382.222 40 390.107 43.2239 395.92 48.9625C401.734 54.7011 405 62.4844 405 70.6C405 78.7156 401.734 86.4989 395.92 92.2375C390.718 97.3726 383.857 100.494 376.581 101.094C375.159 101.211 374 102.342 374 103.75V139.45C374 140.858 372.843 142 371.417 142H345.583C344.157 142 343 140.858 343 139.45V42.55Z" fill="white"/>
<path d="M417.5 40C416.119 40 415 41.1417 415 42.55V261.45C415 262.858 416.119 264 417.5 264H442.5C443.881 264 445 262.858 445 261.45V42.55C445 41.1417 443.881 40 442.5 40H417.5Z" fill="white"/>
</svg>
